<svg width="1463" height="1008" xmlns="http://www.w3.org/2000/svg" xmlns:xlink="http://www.w3.org/1999/xlink" overflow="hidden"><defs><clipPath id="clip0"><path d="M0 0 1463 0 1463 1008 0 1008Z" fill-rule="evenodd" clip-rule="evenodd"/></clipPath></defs><g clip-path="url(#clip0)"><rect x="0" y="0" width="1462.67" height="1008" fill="#FFFFFF" transform="scale(1.00023 1)"/><path d="M0 15.5C-3.9458e-15 6.93959 6.93799 0 15.4964 0 24.0549-3.94671e-15 30.9929 6.93959 30.9929 15.5 30.9929 24.0604 24.0549 31 15.4964 31 6.93799 31-5.91871e-15 24.0604 0 15.5Z" stroke="#2F528F" stroke-width="1.33333" stroke-miterlimit="8" fill="#4472C4" fill-rule="evenodd" transform="matrix(1.00023 0 -0 1 192.5 12.5001)"/><path d="M10.6668 0 232.278 0C238.169 0 242.945 4.77571 242.945 10.6668L242.945 64 0 64 0 10.6668C-1.93313e-15 4.77571 4.7757 0 10.6668 0Z" stroke="#787878" stroke-width="1.33333" stroke-miterlimit="8" fill="#A5A5A5" fill-rule="evenodd" transform="matrix(1.00023 0 -0 1 86.5 77.5001)"/><text fill="#FFFFFF" font-family="Calibri,Calibri_MSFontService,sans-serif" font-weight="400" font-size="24" transform="matrix(1 0 0 0.999772 132.485 104)">Read and parse <tspan x="4.6944" y="29.0066">definition.json</tspan></text><rect x="0" y="0" width="242.945" height="64" stroke="#AE5A21" stroke-width="1.33333" stroke-miterlimit="8" fill="#ED7D31" transform="matrix(1.00023 0 -0 1 86.5 141.5)"/><text fill="#FFFFFF" font-family="Calibri,Calibri_MSFontService,sans-serif" font-weight="400" font-size="24" transform="matrix(1 0 0 0.999772 118.555 181)">sispo.read_input()</text><path d="M10.6668 0 232.278 0C238.169 0 242.945 4.77571 242.945 10.6668L242.945 64 0 64 0 10.6668C-1.93313e-15 4.77571 4.7757 0 10.6668 0Z" stroke="#787878" stroke-width="1.33333" stroke-miterlimit="8" fill="#A5A5A5" fill-rule="evenodd" transform="matrix(1.00023 0 -0 1 86.5 231.5)"/><text fill="#FFFFFF" font-family="Calibri,Calibri_MSFontService,sans-serif" font-weight="400" font-size="24" transform="matrix(1 0 0 0.999772 108.293 272)">Simulate<tspan x="90.3739" y="0">and </tspan><tspan x="132.717" y="0">render</tspan></text><rect x="0" y="0" width="242.945" height="64" stroke="#AE5A21" stroke-width="1.33333" stroke-miterlimit="8" fill="#ED7D31" transform="matrix(1.00023 0 -0 1 86.5 295.5)"/><path d="M2-6.09749e-06 2.00007 24.4361-1.99993 24.4361-2 6.09749e-06ZM6.00007 22.4361 0.000104987 34.4361-5.99993 22.4361Z" fill="#4472C4" transform="matrix(1.00023 0 -0 1 208 43)"/><path d="M2-8.01279e-06 2.00006 16.2048-1.99993 16.2048-2 8.01279e-06ZM6.00006 14.2048 0.000104987 26.2048-5.99994 14.2049Z" fill="#4472C4" transform="matrix(1.00023 0 -0 1 208 205)"/><path d="M10.6668 0 232.278 0C238.169 0 242.945 4.77571 242.945 10.6668L242.945 64 0 64 0 10.6668C-1.93313e-15 4.77571 4.7757 0 10.6668 0Z" stroke="#787878" stroke-width="1.33333" stroke-miterlimit="8" fill="#A5A5A5" fill-rule="evenodd" transform="matrix(1.00023 0 -0 1 377.5 231.5)"/><text fill="#FFFFFF" font-family="Calibri,Calibri_MSFontService,sans-serif" font-weight="400" font-size="24" transform="matrix(1 0 0 0.999772 412.631 258)">Create <tspan x="69.3891" y="0">simulation</tspan><tspan x="23.0853" y="29.0066">environment</tspan></text><rect x="0" y="0" width="242.945" height="64" stroke="#AE5A21" stroke-width="1.33333" stroke-miterlimit="8" fill="#ED7D31" transform="matrix(1.00023 0 -0 1 377.5 295.5)"/><text fill="#FFFFFF" font-family="Calibri,Calibri_MSFontService,sans-serif" font-weight="400" font-size="16" transform="matrix(1 0 0 0.999772 392.78 332)">sispo.Environment<tspan x="120.354" y="0">(</tspan><tspan x="125.189" y="0">sim_settings</tspan><tspan x="206.56" y="0">)</tspan></text><path d="M10.6668 0 232.278 0C238.169 0 242.945 4.77571 242.945 10.6668L242.945 64 0 64 0 10.6668C-1.93313e-15 4.77571 4.7757 0 10.6668 0Z" stroke="#787878" stroke-width="1.33333" stroke-miterlimit="8" fill="#A5A5A5" fill-rule="evenodd" transform="matrix(1.00023 0 -0 1 665.5 231.5)"/><text fill="#FFFFFF" font-family="Calibri,Calibri_MSFontService,sans-serif" font-weight="400" font-size="24" transform="matrix(1 0 0 0.999772 683.833 258)">Propagate spacecraft <tspan x="58.2866" y="29.0066">and SSSB</tspan></text><rect x="0" y="0" width="242.945" height="64" stroke="#AE5A21" stroke-width="1.33333" stroke-miterlimit="8" fill="#ED7D31" transform="matrix(1.00023 0 -0 1 665.5 295.5)"/><text fill="#FFFFFF" font-family="Calibri,Calibri_MSFontService,sans-serif" font-weight="400" font-size="16" transform="matrix(1 0 0 0.999772 721.695 332)">sispo.sim.simulate<tspan x="119.541" y="0">()</tspan></text><path d="M10.667 0 233.277 0C239.169 0 243.944 4.77577 243.944 10.667L243.944 64 0 64 0 10.667C0 4.77577 4.77576 0 10.667 0Z" stroke="#787878" stroke-width="1.33333" stroke-miterlimit="8" fill="#A5A5A5" fill-rule="evenodd" transform="matrix(1.00023 0 -0 1 952.5 231.5)"/><text fill="#FFFFFF" font-family="Calibri,Calibri_MSFontService,sans-serif" font-weight="400" font-size="24" transform="matrix(1 0 0 0.999772 1013.24 272)">Render<tspan x="75.764" y="0">SSSB</tspan></text><rect x="0" y="0" width="243.944" height="64" stroke="#AE5A21" stroke-width="1.33333" stroke-miterlimit="8" fill="#ED7D31" transform="matrix(1.00023 0 -0 1 952.5 295.5)"/><text fill="#FFFFFF" font-family="Calibri,Calibri_MSFontService,sans-serif" font-weight="400" font-size="16" transform="matrix(1 0 0 0.999772 1015.55 332)">sispo.sim.render<tspan x="107.478" y="0">()</tspan></text><path d="M4.4191e-06-2 37.5151-1.99992 37.5151 2.00008-4.4191e-06 2ZM35.5151-5.99992 47.5151 0.000104987 35.5151 6.00008Z" fill="#4472C4" transform="matrix(1.00023 0 -0 1 329 263)"/><path d="M4.73302e-06-2 34.3636-1.99992 34.3636 2.00008-4.73302e-06 2ZM32.3636-5.99992 44.3636 0.000104987 32.3636 6.00008Z" fill="#4472C4" transform="matrix(1.00023 0 -0 1 620 263)"/><path d="M4.73302e-06-2 34.3636-1.99992 34.3636 2.00008-4.73302e-06 2ZM32.3636-5.99992 44.3636 0.000104987 32.3636 6.00008Z" fill="#4472C4" transform="matrix(1.00023 0 -0 1 908 263)"/><path d="M10.6668 0 232.278 0C238.169 0 242.945 4.77571 242.945 10.6668L242.945 64 0 64 0 10.6668C-1.93313e-15 4.77571 4.7757 0 10.6668 0Z" stroke="#787878" stroke-width="1.33333" stroke-miterlimit="8" fill="#A5A5A5" fill-rule="evenodd" transform="matrix(1.00023 0 -0 1 86.5 385.5)"/><text fill="#FFFFFF" font-family="Calibri,Calibri_MSFontService,sans-serif" font-weight="400" font-size="24" transform="matrix(1 0 0 0.999772 159.481 426)">Compress</text><rect x="0" y="0" width="242.945" height="64" stroke="#AE5A21" stroke-width="1.33333" stroke-miterlimit="8" fill="#ED7D31" transform="matrix(1.00023 0 -0 1 86.5 449.5)"/><path d="M10.6668 0 232.278 0C238.169 0 242.945 4.77571 242.945 10.6668L242.945 64 0 64 0 10.6668C-1.93313e-15 4.77571 4.7757 0 10.6668 0Z" stroke="#787878" stroke-width="1.33333" stroke-miterlimit="8" fill="#A5A5A5" fill-rule="evenodd" transform="matrix(1.00023 0 -0 1 86.5 540.5)"/><text fill="#FFFFFF" font-family="Calibri,Calibri_MSFontService,sans-serif" font-weight="400" font-size="24" transform="matrix(1 0 0 0.999772 149.432 581)">Reconstruct</text><rect x="0" y="0" width="242.945" height="64" stroke="#AE5A21" stroke-width="1.33333" stroke-miterlimit="8" fill="#ED7D31" transform="matrix(1.00023 0 -0 1 86.5 604.5)"/><path d="M0 15C-3.81853e-15 6.71573 6.7142 0 14.9966 0 23.279-3.8194e-15 29.9932 6.71573 29.9932 15 29.9932 23.2843 23.279 30 14.9966 30 6.7142 30-5.7278e-15 23.2843 0 15Z" stroke="#2F528F" stroke-width="1.33333" stroke-miterlimit="8" fill="#4472C4" fill-rule="evenodd" transform="matrix(1.00023 0 -0 1 192.5 702.5)"/><path d="M-1.99993 0.0167539-2.20277-24.1969 1.79709-24.2304 1.99993-0.0167539ZM-6.18588-22.1635-0.286614-34.2133 5.8137-22.264Z" fill="#4472C4" transform="matrix(1.00023 8.74427e-08 8.74228e-08 -1 207.287 668)"/><path d="M10.6668 0 232.278 0C238.169 0 242.945 4.77571 242.945 10.6668L242.945 64 0 64 0 10.6668C-1.93313e-15 4.77571 4.7757 0 10.6668 0Z" stroke="#787878" stroke-width="1.33333" stroke-miterlimit="8" fill="#A5A5A5" fill-rule="evenodd" transform="matrix(1.00023 0 -0 1 377.5 385.5)"/><text fill="#FFFFFF" font-family="Calibri,Calibri_MSFontService,sans-serif" font-weight="400" font-size="24" transform="matrix(1 0 0 0.999772 406.693 426)">Create <tspan x="69.3891" y="0">compressor</tspan></text><rect x="0" y="0" width="242.945" height="64" stroke="#AE5A21" stroke-width="1.33333" stroke-miterlimit="8" fill="#ED7D31" transform="matrix(1.00023 0 -0 1 377.5 449.5)"/><text fill="#FFFFFF" font-family="Calibri,Calibri_MSFontService,sans-serif" font-weight="400" font-size="16" transform="matrix(1 0 0 0.999772 388.682 486)">sispo.Compressor<tspan x="115.013" y="0">(</tspan><tspan x="119.847" y="0">comp_settings</tspan><tspan x="214.756" y="0">)</tspan></text><path d="M-0.021449 1.99988-37.5373 1.59752-37.4944-2.40225 0.021449-1.99988ZM-35.5803 5.61874-47.5153-0.509606-35.4516-6.38057Z" fill="#4472C4" transform="matrix(-1.00023 -0 -0 1 329 417.51)"/><path d="M-2 1.60256e-05-2.00013-16.2048 1.99987-16.2048 2-1.60256e-05ZM-6.00011-14.2048-0.000209974-26.2048 5.99989-14.2049Z" fill="#4472C4" transform="matrix(1.00023 8.74427e-08 8.74228e-08 -1 208 359)"/><path d="M-2 8.01635e-06-2.00006-16.1932 1.99993-16.1932 2-8.01635e-06ZM-6.00006-14.1932-0.000104987-26.1932 5.99994-14.1932Z" fill="#4472C4" transform="matrix(1.00023 8.74427e-08 8.74228e-08 -1 208 513)"/><path d="M10.6668 0 232.278 0C238.169 0 242.945 4.77571 242.945 10.6668L242.945 64 0 64 0 10.6668C-1.93313e-15 4.77571 4.7757 0 10.6668 0Z" stroke="#787878" stroke-width="1.33333" stroke-miterlimit="8" fill="#A5A5A5" fill-rule="evenodd" transform="matrix(1.00023 0 -0 1 665.5 385.5)"/><text fill="#FFFFFF" font-family="Calibri,Calibri_MSFontService,sans-serif" font-weight="400" font-size="24" transform="matrix(1 0 0 0.999772 705.872 412)">Compress<tspan x="101.543" y="0">image</tspan><tspan x="52.1719" y="29.0066">series</tspan></text><rect x="0" y="0" width="242.945" height="64" stroke="#AE5A21" stroke-width="1.33333" stroke-miterlimit="8" fill="#ED7D31" transform="matrix(1.00023 0 -0 1 665.5 449.5)"/><text fill="#FFFFFF" font-family="Calibri,Calibri_MSFontService,sans-serif" font-weight="400" transform="matrix(1 0 0 0.999772 682.36 485)">sispo.compression.comp_decomp_series<tspan x="200.546" y="0">()</tspan></text><path d="M10.6668 0 232.278 0C238.169 0 242.945 4.77571 242.945 10.6668L242.945 64 0 64 0 10.6668C-1.93313e-15 4.77571 4.7757 0 10.6668 0Z" stroke="#787878" stroke-width="1.33333" stroke-miterlimit="8" fill="#A5A5A5" fill-rule="evenodd" transform="matrix(1.00023 0 -0 1 377.5 540.5)"/><text fill="#FFFFFF" font-family="Calibri,Calibri_MSFontService,sans-serif" font-weight="400" font-size="24" transform="matrix(1 0 0 0.999772 397.607 581)">Create <tspan x="69.3891" y="0">reconstructor</tspan></text><rect x="0" y="0" width="242.945" height="64" stroke="#AE5A21" stroke-width="1.33333" stroke-miterlimit="8" fill="#ED7D31" transform="matrix(1.00023 0 -0 1 377.5 604.5)"/><text fill="#FFFFFF" font-family="Calibri,Calibri_MSFontService,sans-serif" font-weight="400" font-size="15" transform="matrix(1 0 0 0.999772 391.369 641)">sispo.Reconstructor<tspan x="117.693" y="0">(</tspan><tspan x="122.195" y="0">recon_settings</tspan><tspan x="209.714" y="0">)</tspan></text><path d="M4.41908e-06-2 37.5153-1.99992 37.5153 2.00008-4.41908e-06 2ZM35.5153-5.99992 47.5153 0.000104987 35.5153 6.00008Z" fill="#4472C4" transform="matrix(1.00023 0 -0 1 329 572)"/><path d="M0.021818-1.99988 34.3859-1.62498 34.3422 2.37478-0.021818 1.99988ZM32.4296-5.64656 44.3635 0.483989 32.2987 6.35272Z" fill="#4472C4" transform="matrix(1.00023 0 -0 1 620 417)"/><path d="M10.6668 0 232.278 0C238.169 0 242.945 4.77571 242.945 10.6668L242.945 64 0 64 0 10.6668C-1.93313e-15 4.77571 4.7757 0 10.6668 0Z" stroke="#787878" stroke-width="1.33333" stroke-miterlimit="8" fill="#A5A5A5" fill-rule="evenodd" transform="matrix(1.00023 0 -0 1 668.5 540.5)"/><text fill="#FFFFFF" font-family="Calibri,Calibri_MSFontService,sans-serif" font-weight="400" font-size="24" transform="matrix(1 0 0 0.999772 697.625 581)">Reconstruct<tspan x="121.641" y="0">model</tspan></text><rect x="0" y="0" width="242.945" height="64" stroke="#AE5A21" stroke-width="1.33333" stroke-miterlimit="8" fill="#ED7D31" transform="matrix(1.00023 0 -0 1 668.5 604.5)"/><text fill="#FFFFFF" font-family="Calibri,Calibri_MSFontService,sans-serif" font-weight="400" font-size="16" transform="matrix(1 0 0 0.999772 689.706 641)">sispo.reconstruct.reconstruct<tspan x="189.823" y="0">()</tspan></text><path d="M-0.00166599 2-37.517 1.96875-37.5136-2.03125 0.00166599-2ZM-35.5203 5.97041-47.5153-0.0395801-35.5103-6.02958Z" fill="#4472C4" transform="matrix(-1.00023 -0 -0 1 620 572.04)"/></g></svg>