<svg width="1463" height="1008" xmlns="http://www.w3.org/2000/svg" xmlns:xlink="http://www.w3.org/1999/xlink" overflow="hidden"><defs><clipPath id="clip0"><path d="M0 0 1463 0 1463 1008 0 1008Z" fill-rule="evenodd" clip-rule="evenodd"/></clipPath></defs><g clip-path="url(#clip0)"><rect x="0" y="0" width="1462.67" height="1008" fill="#FFFFFF" transform="scale(1.00023 1)"/><path d="M0 15.5C-3.81853e-15 6.93959 6.7142 0 14.9966 0 23.279-3.94671e-15 29.9932 6.93959 29.9932 15.5 29.9932 24.0604 23.279 31 14.9966 31 6.7142 31-5.7278e-15 24.0604 0 15.5Z" stroke="#2F528F" stroke-width="1.33333" stroke-miterlimit="8" fill="#4472C4" fill-rule="evenodd" transform="matrix(1.00023 0 -0 1 147.5 12.5001)"/><path d="M2-6.09749e-06 2.00007 24.4361-1.99993 24.4361-2 6.09749e-06ZM6.00007 22.4361 0.000104987 34.4361-5.99993 22.4361Z" fill="#4472C4" transform="matrix(1.00023 0 -0 1 162 43)"/><text font-family="Calibri,Calibri_MSFontService,sans-serif" font-weight="400" font-size="24" transform="matrix(1 0 0 0.999772 186.882 20)">Reconstruct<tspan x="0" y="29.0066">model</tspan></text><path d="M10.667 0 233.277 0C239.169 0 243.944 4.77577 243.944 10.667L243.944 64 0 64 0 10.667C0 4.77577 4.77576 0 10.667 0Z" stroke="#787878" stroke-width="1.33333" stroke-miterlimit="8" fill="#A5A5A5" fill-rule="evenodd" transform="matrix(1.00023 0 -0 1 40.5 77.5001)"/><text fill="#FFFFFF" font-family="Calibri,Calibri_MSFontService,sans-serif" font-weight="400" font-size="24" transform="matrix(1 0 0 0.999772 104.088 118)">Reconstruct</text><rect x="0" y="0" width="243.944" height="64" stroke="#AE5A21" stroke-width="1.33333" stroke-miterlimit="8" fill="#ED7D31" transform="matrix(1.00023 0 -0 1 40.5 141.5)"/><text fill="#FFFFFF" font-family="Calibri,Calibri_MSFontService,sans-serif" font-weight="400" font-size="16" transform="matrix(1 0 0 0.999772 51.903 169)">sispo.reconstructorin.reconstruct<tspan x="215.676" y="0">(</tspan><tspan x="107.838" y="19.0043">)</tspan></text><path d="M10.667 0 233.277 0C239.169 0 243.944 4.77577 243.944 10.667L243.944 64 0 64 0 10.667C0 4.77577 4.77576 0 10.667 0Z" stroke="#787878" stroke-width="1.33333" stroke-miterlimit="8" fill="#A5A5A5" fill-rule="evenodd" transform="matrix(1.00023 0 -0 1 40.5 231.5)"/><text fill="#FFFFFF" font-family="Calibri,Calibri_MSFontService,sans-serif" font-weight="400" font-size="24" transform="matrix(1 0 0 0.999772 72.2277 272)">Create <tspan x="69.3892" y="0">point</tspan><tspan x="126.182" y="0">cloud</tspan></text><rect x="0" y="0" width="243.944" height="64" stroke="#AE5A21" stroke-width="1.33333" stroke-miterlimit="8" fill="#ED7D31" transform="matrix(1.00023 0 -0 1 40.5 295.5)"/><path d="M2-8.01279e-06 2.00006 16.2048-1.99993 16.2048-2 8.01279e-06ZM6.00006 14.2048 0.000104987 26.2048-5.99994 14.2049Z" fill="#4472C4" transform="matrix(1.00023 0 -0 1 162 205)"/><path d="M10.667 0 233.277 0C239.169 0 243.944 4.77577 243.944 10.667L243.944 64 0 64 0 10.667C0 4.77577 4.77576 0 10.667 0Z" stroke="#787878" stroke-width="1.33333" stroke-miterlimit="8" fill="#A5A5A5" fill-rule="evenodd" transform="matrix(1.00023 0 -0 1 331.5 231.5)"/><text fill="#FFFFFF" font-family="Calibri,Calibri_MSFontService,sans-serif" font-weight="400" font-size="24" transform="matrix(1 0 0 0.999772 378.326 272)">Analyse <tspan x="80.9651" y="0">images</tspan></text><rect x="0" y="0" width="243.944" height="64" stroke="#AE5A21" stroke-width="1.33333" stroke-miterlimit="8" fill="#ED7D31" transform="matrix(1.00023 0 -0 1 331.5 295.5)"/><text fill="#FFFFFF" font-family="Calibri,Calibri_MSFontService,sans-serif" font-weight="400" font-size="16" transform="matrix(1 0 0 0.999772 341.198 323)">sispo<tspan x="33.1742" y="0">.reconstruction.openmvg.ana</tspan><tspan x="67.6488" y="19.0043">lyse_images</tspan><tspan x="146.553" y="19.0043">()</tspan></text><path d="M10.667 0 233.277 0C239.169 0 243.944 4.77577 243.944 10.667L243.944 64 0 64 0 10.667C0 4.77577 4.77576 0 10.667 0Z" stroke="#787878" stroke-width="1.33333" stroke-miterlimit="8" fill="#A5A5A5" fill-rule="evenodd" transform="matrix(1.00023 0 -0 1 619.5 231.5)"/><text fill="#FFFFFF" font-family="Calibri,Calibri_MSFontService,sans-serif" font-weight="400" font-size="24" transform="matrix(1 0 0 0.999772 653.3 272)">Compute<tspan x="95.2617" y="0">features</tspan></text><rect x="0" y="0" width="243.944" height="64" stroke="#AE5A21" stroke-width="1.33333" stroke-miterlimit="8" fill="#ED7D31" transform="matrix(1.00023 0 -0 1 619.5 295.5)"/><text fill="#FFFFFF" font-family="Calibri,Calibri_MSFontService,sans-serif" font-weight="400" font-size="16" transform="matrix(1 0 0 0.999772 633.255 323)">sispo.reconstruction.openmvg<tspan x="196.198" y="0">.co</tspan><tspan x="50.9049" y="19.0043">mpute_features</tspan><tspan x="154.829" y="19.0043">()</tspan></text><path d="M10.667 0 233.277 0C239.169 0 243.944 4.77577 243.944 10.667L243.944 64 0 64 0 10.667C0 4.77577 4.77576 0 10.667 0Z" stroke="#787878" stroke-width="1.33333" stroke-miterlimit="8" fill="#A5A5A5" fill-rule="evenodd" transform="matrix(1.00023 0 -0 1 907.5 231.5)"/><text fill="#FFFFFF" font-family="Calibri,Calibri_MSFontService,sans-serif" font-weight="400" font-size="24" transform="matrix(1 0 0 0.999772 954.836 272)">Match features</text><rect x="0" y="0" width="243.944" height="64" stroke="#AE5A21" stroke-width="1.33333" stroke-miterlimit="8" fill="#ED7D31" transform="matrix(1.00023 0 -0 1 907.5 295.5)"/><text fill="#FFFFFF" font-family="Calibri,Calibri_MSFontService,sans-serif" font-weight="400" font-size="16" transform="matrix(1 0 0 0.999772 918.428 323)">sispo.reconstruction.openmvg<tspan x="196.198" y="0">.ma</tspan><tspan x="64.7347" y="19.0043">tch_features</tspan><tspan x="146.3" y="19.0043">()</tspan></text><path d="M4.4191e-06-2 37.5151-1.99992 37.5151 2.00008-4.4191e-06 2ZM35.5151-5.99992 47.5151 0.000104987 35.5151 6.00008Z" fill="#4472C4" transform="matrix(1.00023 0 -0 1 284 263)"/><path d="M4.73302e-06-2 34.3636-1.99992 34.3636 2.00008-4.73302e-06 2ZM32.3636-5.99992 44.3636 0.000104987 32.3636 6.00008Z" fill="#4472C4" transform="matrix(1.00023 0 -0 1 575 263)"/><path d="M4.73302e-06-2 34.3636-1.99992 34.3636 2.00008-4.73302e-06 2ZM32.3636-5.99992 44.3636 0.000104987 32.3636 6.00008Z" fill="#4472C4" transform="matrix(1.00023 0 -0 1 863 263)"/><path d="M-2 2.40384e-05-2.00019-16.2048 1.99981-16.2049 2-2.40384e-05ZM-6.00017-14.2048-0.000314961-26.2048 5.99983-14.2049Z" fill="#4472C4" transform="matrix(1.00023 8.74427e-08 8.74228e-08 -1 162 359)"/><path d="M10.667 0 233.277 0C239.169 0 243.944 4.77577 243.944 10.667L243.944 64 0 64 0 10.667C0 4.77577 4.77576 0 10.667 0Z" stroke="#787878" stroke-width="1.33333" stroke-miterlimit="8" fill="#A5A5A5" fill-rule="evenodd" transform="matrix(1.00023 0 -0 1 40.5 385.5)"/><text fill="#FFFFFF" font-family="Calibri,Calibri_MSFontService,sans-serif" font-weight="400" font-size="24" transform="matrix(1 0 0 0.999772 67.8531 426)">Densify<tspan x="78.1378" y="0">point</tspan><tspan x="134.931" y="0">cloud</tspan></text><rect x="0" y="0" width="243.944" height="64" stroke="#AE5A21" stroke-width="1.33333" stroke-miterlimit="8" fill="#ED7D31" transform="matrix(1.00023 0 -0 1 40.5 449.5)"/><path d="M10.667 0 233.277 0C239.169 0 243.944 4.77577 243.944 10.667L243.944 64 0 64 0 10.667C0 4.77577 4.77576 0 10.667 0Z" stroke="#787878" stroke-width="1.33333" stroke-miterlimit="8" fill="#A5A5A5" fill-rule="evenodd" transform="matrix(1.00023 0 -0 1 40.5 540.5)"/><text fill="#FFFFFF" font-family="Calibri,Calibri_MSFontService,sans-serif" font-weight="400" font-size="24" transform="matrix(1 0 0 0.999772 58.461 581)">Create <tspan x="69.3892" y="0">texture</tspan><tspan x="145.38" y="0">model</tspan></text><rect x="0" y="0" width="243.944" height="64" stroke="#AE5A21" stroke-width="1.33333" stroke-miterlimit="8" fill="#ED7D31" transform="matrix(1.00023 0 -0 1 40.5 604.5)"/><path d="M2-8.01279e-06 2.00006 16.2048-1.99993 16.2048-2 8.01279e-06ZM6.00006 14.2048 0.000104987 26.2048-5.99994 14.2049Z" fill="#4472C4" transform="matrix(1.00023 0 -0 1 162 513)"/><path d="M0 15.5C-3.81853e-15 6.93959 6.7142 0 14.9966 0 23.279-3.94671e-15 29.9932 6.93959 29.9932 15.5 29.9932 24.0604 23.279 31 14.9966 31 6.7142 31-5.7278e-15 24.0604 0 15.5Z" stroke="#2F528F" stroke-width="1.33333" stroke-miterlimit="8" fill="#4472C4" fill-rule="evenodd" transform="matrix(1.00023 0 -0 1 147.5 701.5)"/><path d="M2-6.21891e-06 2.00007 23.7638-1.99993 23.7638-2 6.21891e-06ZM6.00007 21.7638 0.000104987 33.7638-5.99993 21.7638Z" fill="#4472C4" transform="matrix(1.00023 0 -0 1 162 668)"/><path d="M10.6668 0 232.278 0C238.169 0 242.945 4.77571 242.945 10.6668L242.945 64 0 64 0 10.6668C-1.93313e-15 4.77571 4.7757 0 10.6668 0Z" stroke="#787878" stroke-width="1.33333" stroke-miterlimit="8" fill="#A5A5A5" fill-rule="evenodd" transform="matrix(1.00023 0 -0 1 1195.5 231.5)"/><text fill="#FFFFFF" font-family="Calibri,Calibri_MSFontService,sans-serif" font-weight="400" font-size="24" transform="matrix(1 0 0 0.999772 1258.53 272)">Reconstruct</text><rect x="0" y="0" width="242.945" height="64" stroke="#AE5A21" stroke-width="1.33333" stroke-miterlimit="8" fill="#ED7D31" transform="matrix(1.00023 0 -0 1 1195.5 295.5)"/><text fill="#FFFFFF" font-family="Calibri,Calibri_MSFontService,sans-serif" font-weight="400" font-size="16" transform="matrix(1 0 0 0.999772 1206.44 323)">sispo.reconstruction.openmvg<tspan x="196.198" y="0">.rec</tspan><tspan x="57.2398" y="19.0043">onstruct_multi</tspan><tspan x="153.415" y="19.0043">()</tspan></text><path d="M4.73302e-06-2 34.3636-1.99992 34.3636 2.00008-4.73302e-06 2ZM32.3636-5.99992 44.3636 0.000104987 32.3636 6.00008Z" fill="#4472C4" transform="matrix(1.00023 0 -0 1 1151 263)"/><path d="M10.667 0 233.277 0C239.169 0 243.944 4.77577 243.944 10.667L243.944 64 0 64 0 10.667C0 4.77577 4.77576 0 10.667 0Z" stroke="#787878" stroke-width="1.33333" stroke-miterlimit="8" fill="#A5A5A5" fill-rule="evenodd" transform="matrix(1.00023 0 -0 1 331.5 385.5)"/><text fill="#FFFFFF" font-family="Calibri,Calibri_MSFontService,sans-serif" font-weight="400" font-size="24" transform="matrix(1 0 0 0.999772 358.048 426)">Export to openMVS</text><rect x="0" y="0" width="243.944" height="64" stroke="#AE5A21" stroke-width="1.33333" stroke-miterlimit="8" fill="#ED7D31" transform="matrix(1.00023 0 -0 1 331.5 449.5)"/><text fill="#FFFFFF" font-family="Calibri,Calibri_MSFontService,sans-serif" font-weight="400" font-size="16" transform="matrix(1 0 0 0.999772 341.485 477)">sispo<tspan x="33.1742" y="0">.reconstruction.openmvg.exp</tspan><tspan x="78.1845" y="19.0043">ort_MVS</tspan><tspan x="135.438" y="19.0043">()</tspan></text><path d="M10.667 0 233.277 0C239.169 0 243.944 4.77577 243.944 10.667L243.944 64 0 64 0 10.667C0 4.77577 4.77576 0 10.667 0Z" stroke="#787878" stroke-width="1.33333" stroke-miterlimit="8" fill="#A5A5A5" fill-rule="evenodd" transform="matrix(1.00023 0 -0 1 619.5 385.5)"/><text fill="#FFFFFF" font-family="Calibri,Calibri_MSFontService,sans-serif" font-weight="400" font-size="24" transform="matrix(1 0 0 0.999772 653.3 426)">Compute<tspan x="95.2617" y="0">features</tspan></text><rect x="0" y="0" width="243.944" height="64" stroke="#AE5A21" stroke-width="1.33333" stroke-miterlimit="8" fill="#ED7D31" transform="matrix(1.00023 0 -0 1 619.5 449.5)"/><text fill="#FFFFFF" font-family="Calibri,Calibri_MSFontService,sans-serif" font-weight="400" font-size="16" transform="matrix(1 0 0 0.999772 629.031 477)">sispo.reconstruction.<tspan x="136.004" y="0">openmvs.den</tspan><tspan x="57.293" y="19.0043">sify_pointcloud</tspan><tspan x="156.889" y="19.0043">()</tspan></text><path d="M4.41907e-06-2 37.5154-1.99992 37.5154 2.00008-4.41907e-06 2ZM35.5154-5.99992 47.5154 0.000104987 35.5154 6.00008Z" fill="#4472C4" transform="matrix(1.00023 0 -0 1 284 417)"/><path d="M4.73302e-06-2 34.3636-1.99992 34.3636 2.00008-4.73302e-06 2ZM32.3636-5.99992 44.3636 0.000104987 32.3636 6.00008Z" fill="#4472C4" transform="matrix(1.00023 0 -0 1 575 417)"/><path d="M10.667 0 233.277 0C239.169 0 243.944 4.77577 243.944 10.667L243.944 64 0 64 0 10.667C0 4.77577 4.77576 0 10.667 0Z" stroke="#787878" stroke-width="1.33333" stroke-miterlimit="8" fill="#A5A5A5" fill-rule="evenodd" transform="matrix(1.00023 0 -0 1 331.5 540.5)"/><text fill="#FFFFFF" font-family="Calibri,Calibri_MSFontService,sans-serif" font-weight="400" font-size="24" transform="matrix(1 0 0 0.999772 391.85 581)">Create <tspan x="69.3891" y="0">mesh</tspan></text><rect x="0" y="0" width="243.944" height="64" stroke="#AE5A21" stroke-width="1.33333" stroke-miterlimit="8" fill="#ED7D31" transform="matrix(1.00023 0 -0 1 331.5 604.5)"/><text fill="#FFFFFF" font-family="Calibri,Calibri_MSFontService,sans-serif" font-weight="400" font-size="16" transform="matrix(1 0 0 0.999772 343.482 632)">sispo<tspan x="33.1742" y="0">.reconstruction.openmvs.cre</tspan><tspan x="72.7232" y="19.0043">ate_mesh</tspan><tspan x="136.918" y="19.0043">()</tspan></text><path d="M10.667 0 233.277 0C239.169 0 243.944 4.77577 243.944 10.667L243.944 64 0 64 0 10.667C0 4.77577 4.77576 0 10.667 0Z" stroke="#787878" stroke-width="1.33333" stroke-miterlimit="8" fill="#A5A5A5" fill-rule="evenodd" transform="matrix(1.00023 0 -0 1 619.5 540.5)"/><text fill="#FFFFFF" font-family="Calibri,Calibri_MSFontService,sans-serif" font-weight="400" font-size="24" transform="matrix(1 0 0 0.999772 680.676 581)">Refine<tspan x="67.382" y="0">mesh</tspan></text><rect x="0" y="0" width="243.944" height="64" stroke="#AE5A21" stroke-width="1.33333" stroke-miterlimit="8" fill="#ED7D31" transform="matrix(1.00023 0 -0 1 619.5 604.5)"/><text fill="#FFFFFF" font-family="Calibri,Calibri_MSFontService,sans-serif" font-weight="400" font-size="16" transform="matrix(1 0 0 0.999772 631.305 632)">sispo.reconstruction.<tspan x="136.004" y="0">openmvs.cre</tspan><tspan x="72.7233" y="19.0043">ate_mesh</tspan><tspan x="136.918" y="19.0043">()</tspan></text><path d="M10.667 0 233.277 0C239.169 0 243.944 4.77577 243.944 10.667L243.944 64 0 64 0 10.667C0 4.77577 4.77576 0 10.667 0Z" stroke="#787878" stroke-width="1.33333" stroke-miterlimit="8" fill="#A5A5A5" fill-rule="evenodd" transform="matrix(1.00023 0 -0 1 907.5 540.5)"/><text fill="#FFFFFF" font-family="Calibri,Calibri_MSFontService,sans-serif" font-weight="400" font-size="24" transform="matrix(1 0 0 0.999772 963.298 581)">Texture<tspan x="77.7844" y="0">mesh</tspan></text><rect x="0" y="0" width="243.944" height="64" stroke="#AE5A21" stroke-width="1.33333" stroke-miterlimit="8" fill="#ED7D31" transform="matrix(1.00023 0 -0 1 907.5 604.5)"/><text fill="#FFFFFF" font-family="Calibri,Calibri_MSFontService,sans-serif" font-weight="400" font-size="16" transform="matrix(1 0 0 0.999772 916.711 632)">sispo.reconstruction<tspan x="132.003" y="0">.openmvs.text</tspan><tspan x="74.6637" y="19.0043">ure_mesh</tspan><tspan x="139.798" y="19.0043">()</tspan></text><path d="M0.020446-1.9999 37.5364-1.61635 37.4955 2.38344-0.020446 1.9999ZM35.5773-5.63659 47.5154 0.485774 35.4547 6.36278Z" fill="#4472C4" transform="matrix(1.00023 0 -0 1 284 572)"/><path d="M4.73302e-06-2 34.3636-1.99992 34.3636 2.00008-4.73302e-06 2ZM32.3636-5.99992 44.3636 0.000104987 32.3636 6.00008Z" fill="#4472C4" transform="matrix(1.00023 0 -0 1 575 572)"/><path d="M4.73302e-06-2 34.3636-1.99992 34.3636 2.00008-4.73302e-06 2ZM32.3636-5.99992 44.3636 0.000104987 32.3636 6.00008Z" fill="#4472C4" transform="matrix(1.00023 0 -0 1 863 572)"/></g></svg>