<svg width="926" height="491" xmlns="http://www.w3.org/2000/svg" xmlns:xlink="http://www.w3.org/1999/xlink" overflow="hidden"><defs><clipPath id="clip0"><path d="M0 0 926 0 926 491 0 491Z" fill-rule="evenodd" clip-rule="evenodd"/></clipPath></defs><g clip-path="url(#clip0)"><rect x="0" y="0" width="925.372" height="491" fill="#FFFFFF" transform="scale(1.00068 1)"/><path d="M-9.33342 0-187.872 0-187.872-46.6666C-187.872-51.8213-183.694-56-178.539-56L0-56 0-9.33343C1.49492e-15-4.17872-4.17872 0-9.33342 0Z" stroke="#2F528F" stroke-width="1.33243" stroke-miterlimit="8" fill="#4472C4" fill-rule="evenodd" transform="matrix(1.00068 8.74821e-08 8.74228e-08 -1 555.5 -0.500028)"/><text fill="#FFFFFF" font-family="Calibri,Calibri_MSFontService,sans-serif" font-weight="400" font-size="24" transform="matrix(1 0 0 0.999322 432.922 34)">SISPO</text><path d="M-29.834 0-264.82 0-264.82-149.166C-264.82-165.643-251.463-179-234.986-179L0-179 0-29.834C4.21439e-15-13.3571-13.3571 0-29.834 0Z" stroke="#2F528F" stroke-width="1.33243" stroke-miterlimit="8" fill="#4472C4" fill-rule="evenodd" transform="matrix(1.00068 8.74821e-08 8.74228e-08 -1 922.5 73.5)"/><text fill="#FFFFFF" font-family="Calibri,Calibri_MSFontService,sans-serif" font-weight="400" font-size="24" transform="matrix(1 0 0 0.999322 667.043 100)">reconstruction</text><path d="M0 6.33354C-1.50287e-15 2.83562 2.83562 -7.51437e-16 6.33352 0L182.538 0C186.036 -7.51437e-16 188.872 2.83562 188.872 6.33354L188.872 31.6665C188.872 35.1644 186.036 38 182.538 38L6.33352 38C2.83562 38 -7.51434e-16 35.1644 0 31.6665Z" stroke="#507E32" stroke-width="1.33243" stroke-miterlimit="8" fill="#70AD47" fill-rule="evenodd" transform="matrix(1.00068 0 -0 1 665.5 117.5)"/><text fill="#FFFFFF" font-family="Calibri,Calibri_MSFontService,sans-serif" font-weight="400" font-size="24" transform="matrix(1 0 0 0.999322 688.141 144)">reconstruction</text><path d="M0 6.16687C-7.51434e-16 2.761 2.76099 0 6.16684 0L182.705 0C186.111 -7.51438e-16 188.872 2.761 188.872 6.16687L188.872 30.8331C188.872 34.239 186.111 37 182.705 37L6.16684 37C2.76099 37 0 34.239 0 30.8331Z" stroke="#507E32" stroke-width="1.33243" stroke-miterlimit="8" fill="#70AD47" fill-rule="evenodd" transform="matrix(1.00068 0 -0 1 725.5 163.5)"/><text fill="#FFFFFF" font-family="Calibri,Calibri_MSFontService,sans-serif" font-weight="400" font-size="24" transform="matrix(1 0 0 0.999322 774.375 189)">openmvg</text><path d="M0 6.16687C-7.51434e-16 2.761 2.76099 0 6.16684 0L182.705 0C186.111 -7.51438e-16 188.872 2.761 188.872 6.16687L188.872 30.8331C188.872 34.239 186.111 37 182.705 37L6.16684 37C2.76099 37 0 34.239 0 30.8331Z" stroke="#507E32" stroke-width="1.33243" stroke-miterlimit="8" fill="#70AD47" fill-rule="evenodd" transform="matrix(1.00068 0 -0 1 725.5 209.5)"/><text fill="#FFFFFF" font-family="Calibri,Calibri_MSFontService,sans-serif" font-weight="400" font-size="24" transform="matrix(1 0 0 0.999322 775.265 235)">openmvs</text><path d="M-44.1378 0-264.82 0-264.82-373.862C-264.82-398.239-245.059-418-220.682-418L0-418 0-44.1378C6.65212e-15-19.7612-19.7612 6.65212e-15-44.1378 0Z" stroke="#2F528F" stroke-width="1.33243" stroke-miterlimit="8" fill="#4472C4" fill-rule="evenodd" transform="matrix(1.00068 8.74821e-08 8.74228e-08 -1 265.5 73.5)"/><text fill="#FFFFFF" font-family="Calibri,Calibri_MSFontService,sans-serif" font-weight="400" font-size="24" transform="matrix(1 0 0 0.999322 9.6 100)">sim</text><path d="M0 6.33354C-1.50287e-15 2.83562 2.83562 -7.51437e-16 6.33352 0L182.538 0C186.036 -7.51437e-16 188.872 2.83562 188.872 6.33354L188.872 31.6665C188.872 35.1644 186.036 38 182.538 38L6.33352 38C2.83562 38 -7.51434e-16 35.1644 0 31.6665Z" stroke="#507E32" stroke-width="1.33243" stroke-miterlimit="8" fill="#70AD47" fill-rule="evenodd" transform="matrix(1.00068 0 -0 1 8.50005 115.5)"/><text fill="#FFFFFF" font-family="Calibri,Calibri_MSFontService,sans-serif" font-weight="400" font-size="24" transform="matrix(1 0 0 0.999322 85.5479 141)">sim</text><path d="M0 6.33354C-1.50287e-15 2.83562 2.83562 -7.51437e-16 6.33352 0L182.538 0C186.036 -7.51437e-16 188.872 2.83562 188.872 6.33354L188.872 31.6665C188.872 35.1644 186.036 38 182.538 38L6.33352 38C2.83562 38 -7.51434e-16 35.1644 0 31.6665Z" stroke="#507E32" stroke-width="1.33243" stroke-miterlimit="8" fill="#70AD47" fill-rule="evenodd" transform="matrix(1.00068 0 -0 1 8.50005 160.5)"/><text fill="#FFFFFF" font-family="Calibri,Calibri_MSFontService,sans-serif" font-weight="400" font-size="24" transform="matrix(1 0 0 0.999322 69.7046 187)">render</text><path d="M0 6.33354C-1.50287e-15 2.83562 2.83562 -7.51437e-16 6.33352 0L182.538 0C186.036 -7.51437e-16 188.872 2.83562 188.872 6.33354L188.872 31.6665C188.872 35.1644 186.036 38 182.538 38L6.33352 38C2.83562 38 -7.51434e-16 35.1644 0 31.6665Z" stroke="#507E32" stroke-width="1.33243" stroke-miterlimit="8" fill="#70AD47" fill-rule="evenodd" transform="matrix(1.00068 0 -0 1 8.50005 295.5)"/><text fill="#FFFFFF" font-family="Calibri,Calibri_MSFontService,sans-serif" font-weight="400" font-size="24" transform="matrix(1 0 0 0.999322 91.1312 322)">cb</text><path d="M0 6.33354C-1.50287e-15 2.83562 2.83562 -7.51437e-16 6.33352 0L182.538 0C186.036 -7.51437e-16 188.872 2.83562 188.872 6.33354L188.872 31.6665C188.872 35.1644 186.036 38 182.538 38L6.33352 38C2.83562 38 -7.51434e-16 35.1644 0 31.6665Z" stroke="#507E32" stroke-width="1.33243" stroke-miterlimit="8" fill="#70AD47" fill-rule="evenodd" transform="matrix(1.00068 0 -0 1 8.50005 429.5)"/><text fill="#FFFFFF" font-family="Calibri,Calibri_MSFontService,sans-serif" font-weight="400" font-size="24" transform="matrix(1 0 0 0.999322 82.0479 456)">utils</text><path d="M0 6.33354C-1.50287e-15 2.83562 2.83562 -7.51437e-16 6.33352 0L182.538 0C186.036 -7.51437e-16 188.872 2.83562 188.872 6.33354L188.872 31.6665C188.872 35.1644 186.036 38 182.538 38L6.33352 38C2.83562 38 -7.51434e-16 35.1644 0 31.6665Z" stroke="#507E32" stroke-width="1.33243" stroke-miterlimit="8" fill="#70AD47" fill-rule="evenodd" transform="matrix(1.00068 0 -0 1 69.5001 340.5)"/><text fill="#FFFFFF" font-family="Calibri,Calibri_MSFontService,sans-serif" font-weight="400" font-size="24" transform="matrix(1 0 0 0.999322 154.047 366)">sc</text><path d="M0 6.33354C-1.50287e-15 2.83562 2.83562 -7.51437e-16 6.33352 0L182.538 0C186.036 -7.51437e-16 188.872 2.83562 188.872 6.33354L188.872 31.6665C188.872 35.1644 186.036 38 182.538 38L6.33352 38C2.83562 38 -7.51434e-16 35.1644 0 31.6665Z" stroke="#507E32" stroke-width="1.33243" stroke-miterlimit="8" fill="#70AD47" fill-rule="evenodd" transform="matrix(1.00068 0 -0 1 69.5001 385.5)"/><text fill="#FFFFFF" font-family="Calibri,Calibri_MSFontService,sans-serif" font-weight="400" font-size="24" transform="matrix(1 0 0 0.999322 143.464 411)">sssb</text><path d="M0 6.16687C-7.51434e-16 2.761 2.76099 0 6.16684 0L182.705 0C186.111 -7.51438e-16 188.872 2.761 188.872 6.16687L188.872 30.8331C188.872 34.239 186.111 37 182.705 37L6.16684 37C2.76099 37 0 34.239 0 30.8331Z" stroke="#507E32" stroke-width="1.33243" stroke-miterlimit="8" fill="#70AD47" fill-rule="evenodd" transform="matrix(1.00068 0 -0 1 69.5001 206.5)"/><text fill="#FFFFFF" font-family="Calibri,Calibri_MSFontService,sans-serif" font-weight="400" font-size="24" transform="matrix(1 0 0 0.999322 131.047 232)">starcat</text><path d="M0 6.33354C-1.50287e-15 2.83562 2.83562 -7.51437e-16 6.33352 0L182.538 0C186.036 -7.51437e-16 188.872 2.83562 188.872 6.33354L188.872 31.6665C188.872 35.1644 186.036 38 182.538 38L6.33352 38C2.83562 38 -7.51434e-16 35.1644 0 31.6665Z" stroke="#507E32" stroke-width="1.33243" stroke-miterlimit="8" fill="#70AD47" fill-rule="evenodd" transform="matrix(1.00068 0 -0 1 69.5001 251.5)"/><text fill="#FFFFFF" font-family="Calibri,Calibri_MSFontService,sans-serif" font-weight="400" font-size="24" transform="matrix(1 0 0 0.999322 108.431 277)">compositor</text><path d="M-22.1671 0-263.821 0-263.821-110.833C-263.821-123.075-253.896-133-241.654-133L0-133 0-22.1671C4.19849e-15-9.92457-9.92456 0-22.1671 0Z" stroke="#2F528F" stroke-width="1.33243" stroke-miterlimit="8" fill="#4472C4" fill-rule="evenodd" transform="matrix(1.00068 8.74821e-08 8.74228e-08 -1 593.5 73.5)"/><text fill="#FFFFFF" font-family="Calibri,Calibri_MSFontService,sans-serif" font-weight="400" font-size="24" transform="matrix(1 0 0 0.999322 338.322 100)">compression</text><path d="M0 6.33354C-1.50287e-15 2.83562 2.83562 -7.51437e-16 6.33352 0L182.538 0C186.036 -7.51437e-16 188.872 2.83562 188.872 6.33354L188.872 31.6665C188.872 35.1644 186.036 38 182.538 38L6.33352 38C2.83562 38 -7.51434e-16 35.1644 0 31.6665Z" stroke="#507E32" stroke-width="1.33243" stroke-miterlimit="8" fill="#70AD47" fill-rule="evenodd" transform="matrix(1.00068 0 -0 1 336.5 115.5)"/><text fill="#FFFFFF" font-family="Calibri,Calibri_MSFontService,sans-serif" font-weight="400" font-size="24" transform="matrix(1 0 0 0.999322 368.619 141)">compression</text><path d="M0 6.33354C-1.50287e-15 2.83562 2.83562 -7.51437e-16 6.33352 0L182.538 0C186.036 -7.51437e-16 188.872 2.83562 188.872 6.33354L188.872 31.6665C188.872 35.1644 186.036 38 182.538 38L6.33352 38C2.83562 38 -7.51434e-16 35.1644 0 31.6665Z" stroke="#507E32" stroke-width="1.33243" stroke-miterlimit="8" fill="#70AD47" fill-rule="evenodd" transform="matrix(1.00068 0 -0 1 336.5 160.5)"/><text fill="#FFFFFF" font-family="Calibri,Calibri_MSFontService,sans-serif" font-weight="400" font-size="24" transform="matrix(1 0 0 0.999322 410.113 187)">utils</text><path d="M0 6.33342C-1.79708e-15 2.83557 2.83557 0 6.33341 0L106.59 0C110.088 -8.98541e-16 112.923 2.83557 112.923 6.33342L112.923 31.6666C112.923 35.1645 110.088 38 106.59 38L6.33341 38C2.83557 38 0 35.1645 0 31.6666Z" stroke="#507E32" stroke-width="1.33243" stroke-miterlimit="8" fill="#70AD47" fill-rule="evenodd" transform="matrix(1.00068 0 -0 1 809.5 453.5)"/><text fill="#FFFFFF" font-family="Calibri,Calibri_MSFontService,sans-serif" font-weight="400" font-size="24" transform="matrix(1 0 0 0.999322 827.984 479)">module</text><path d="M-6.33341 0-112.923 0-112.923-31.6666C-112.923-35.1645-110.088-38-106.59-38L0-38 0-6.33342C1.79708e-15-2.83557-2.83557 0-6.33341 0Z" stroke="#2F528F" stroke-width="1.33243" stroke-miterlimit="8" fill="#4472C4" fill-rule="evenodd" transform="matrix(1.00068 8.74821e-08 8.74228e-08 -1 922.5 404.5)"/><text fill="#FFFFFF" font-family="Calibri,Calibri_MSFontService,sans-serif" font-weight="400" font-size="24" transform="matrix(1 0 0 0.999322 825.624 430)">package</text></g></svg>