<svg width="1463" height="1008" xmlns="http://www.w3.org/2000/svg" xmlns:xlink="http://www.w3.org/1999/xlink" overflow="hidden"><defs><clipPath id="clip0"><path d="M0 0 1463 0 1463 1008 0 1008Z" fill-rule="evenodd" clip-rule="evenodd"/></clipPath></defs><g clip-path="url(#clip0)"><rect x="0" y="0" width="1462.67" height="1008" fill="#FFFFFF" transform="scale(1.00023 1)"/><path d="M0 15.5C-3.9458e-15 6.93959 6.93799 0 15.4964 0 24.0549-3.94671e-15 30.9929 6.93959 30.9929 15.5 30.9929 24.0604 24.0549 31 15.4964 31 6.93799 31-5.91871e-15 24.0604 0 15.5Z" stroke="#2F528F" stroke-width="1.33333" stroke-miterlimit="8" fill="#4472C4" fill-rule="evenodd" transform="matrix(1.00023 0 -0 1 192.5 12.5001)"/><path d="M2-6.09749e-06 2.00007 24.4361-1.99993 24.4361-2 6.09749e-06ZM6.00007 22.4361 0.000104987 34.4361-5.99993 22.4361Z" fill="#4472C4" transform="matrix(1.00023 0 -0 1 208 43)"/><path d="M10.6668 0 232.278 0C238.169 0 242.945 4.77571 242.945 10.6668L242.945 64 0 64 0 10.6668C-1.93313e-15 4.77571 4.7757 0 10.6668 0Z" stroke="#787878" stroke-width="1.33333" stroke-miterlimit="8" fill="#A5A5A5" fill-rule="evenodd" transform="matrix(1.00023 0 -0 1 86.5 77.5001)"/><text fill="#FFFFFF" font-family="Calibri,Calibri_MSFontService,sans-serif" font-weight="400" font-size="24" transform="matrix(1 0 0 0.999772 148.432 118)">Propagation</text><rect x="0" y="0" width="242.945" height="64" stroke="#AE5A21" stroke-width="1.33333" stroke-miterlimit="8" fill="#ED7D31" transform="matrix(1.00023 0 -0 1 86.5 141.5)"/><text fill="#FFFFFF" font-family="Calibri,Calibri_MSFontService,sans-serif" font-weight="400" font-size="24" transform="matrix(1 0 0 0.999772 108.303 181)">sispo.cb.propagate()</text><path d="M10.6668 0 232.278 0C238.169 0 242.945 4.77571 242.945 10.6668L242.945 64 0 64 0 10.6668C-1.93313e-15 4.77571 4.7757 0 10.6668 0Z" stroke="#787878" stroke-width="1.33333" stroke-miterlimit="8" fill="#A5A5A5" fill-rule="evenodd" transform="matrix(1.00023 0 -0 1 86.5 246.5)"/><text fill="#FFFFFF" font-family="Calibri,Calibri_MSFontService,sans-serif" font-weight="400" font-size="24" transform="matrix(1 0 0 0.999772 115.044 287)">Setup <tspan x="61.7207" y="0">timesampler</tspan></text><rect x="0" y="0" width="242.945" height="64" stroke="#AE5A21" stroke-width="1.33333" stroke-miterlimit="8" fill="#ED7D31" transform="matrix(1.00023 0 -0 1 86.5 310.5)"/><text fill="#FFFFFF" font-family="Calibri,Calibri_MSFontService,sans-serif" font-weight="400" font-size="16" transform="matrix(1 0 0 0.999772 111.273 348)">sispo.cb.setup_timesampler<tspan x="182.788" y="0">()</tspan></text><path d="M10.6668 0 232.278 0C238.169 0 242.945 4.77571 242.945 10.6668L242.945 64 0 64 0 10.6668C-1.93313e-15 4.77571 4.7757 0 10.6668 0Z" stroke="#787878" stroke-width="1.33333" stroke-miterlimit="8" fill="#A5A5A5" fill-rule="evenodd" transform="matrix(1.00023 0 -0 1 86.5 416.5)"/><text fill="#FFFFFF" font-family="Calibri,Calibri_MSFontService,sans-serif" font-weight="400" font-size="24" transform="matrix(1 0 0 0.999772 117.595 442)">Shift start<tspan x="100.129" y="0">and end </tspan><tspan x="67.5687" y="29.0066">time</tspan></text><rect x="0" y="0" width="242.945" height="64" stroke="#AE5A21" stroke-width="1.33333" stroke-miterlimit="8" fill="#ED7D31" transform="matrix(1.00023 0 -0 1 86.5 480.5)"/><path d="M10.6668 0 232.278 0C238.169 0 242.945 4.77571 242.945 10.6668L242.945 64 0 64 0 10.6668C-1.93313e-15 4.77571 4.7757 0 10.6668 0Z" stroke="#787878" stroke-width="1.33333" stroke-miterlimit="8" fill="#A5A5A5" fill-rule="evenodd" transform="matrix(1.00023 0 -0 1 86.5 585.5)"/><text fill="#FFFFFF" font-family="Calibri,Calibri_MSFontService,sans-serif" font-weight="400" font-size="24" transform="matrix(1 0 0 0.999772 157.98 626)">Propagate</text><rect x="0" y="0" width="242.945" height="64" stroke="#AE5A21" stroke-width="1.33333" stroke-miterlimit="8" fill="#ED7D31" transform="matrix(1.00023 0 -0 1 86.5 649.5)"/><text fill="#FFFFFF" font-family="Calibri,Calibri_MSFontService,sans-serif" font-weight="400" font-size="16" transform="matrix(1 0 0 0.999772 97.5367 677)">orekit.propagation.events.DateDe<tspan x="51.3584" y="19.0043">tector.propagate</tspan><tspan x="158.903" y="19.0043">()</tspan></text><path d="M2-5.08001e-06 2.00008 31.3333-1.99992 31.3333-2 5.08001e-06ZM6.00007 29.3333 0.000104987 41.3333-5.99993 29.3333Z" fill="#4472C4" transform="matrix(1.00023 0 -0 1 208 205)"/><path d="M2-5.08001e-06 2.00008 31.3333-1.99992 31.3333-2 5.08001e-06ZM6.00007 29.3333 0.000104987 41.3333-5.99993 29.3333Z" fill="#4472C4" transform="matrix(1.00023 0 -0 1 208 374)"/><path d="M2-5.08001e-06 2.00008 31.3333-1.99992 31.3333-2 5.08001e-06ZM6.00007 29.3333 0.000104987 41.3333-5.99993 29.3333Z" fill="#4472C4" transform="matrix(1.00023 0 -0 1 208 544)"/><path d="M10.6668 0 232.278 0C238.169 0 242.945 4.77571 242.945 10.6668L242.945 64 0 64 0 10.6668C-1.93313e-15 4.77571 4.7757 0 10.6668 0Z" stroke="#787878" stroke-width="1.33333" stroke-miterlimit="8" fill="#A5A5A5" fill-rule="evenodd" transform="matrix(1.00023 0 -0 1 86.5 755.5)"/><text fill="#FFFFFF" font-family="Calibri,Calibri_MSFontService,sans-serif" font-weight="400" font-size="24" transform="matrix(1 0 0 0.999772 149.962 796)">Save <tspan x="50.2114" y="0">results</tspan></text><rect x="0" y="0" width="242.945" height="64" stroke="#AE5A21" stroke-width="1.33333" stroke-miterlimit="8" fill="#ED7D31" transform="matrix(1.00023 0 -0 1 86.5 819.5)"/><text fill="#FFFFFF" font-family="Calibri,Calibri_MSFontService,sans-serif" font-weight="400" font-size="16" transform="matrix(1 0 0 0.999772 95.5563 846)">sispo.cb.date_history/.pos_history<tspan x="71.0295" y="19.0043">/.</tspan><tspan x="81.1985" y="19.0043">rot_history</tspan></text><path d="M2-5.03304e-06 2.00008 31.719-1.99992 31.7191-2 5.03304e-06ZM6.00007 29.719 0.000104987 41.7191-5.99993 29.7191Z" fill="#4472C4" transform="matrix(1.00023 0 -0 1 208 713)"/><path d="M0 15.5C-3.9458e-15 6.93959 6.93799 0 15.4964 0 24.0549-3.94671e-15 30.9929 6.93959 30.9929 15.5 30.9929 24.0604 24.0549 31 15.4964 31 6.93799 31-5.91871e-15 24.0604 0 15.5Z" stroke="#2F528F" stroke-width="1.33333" stroke-miterlimit="8" fill="#4472C4" fill-rule="evenodd" transform="matrix(1.00023 0 -0 1 192.5 924.5)"/><path d="M-2 5.03304e-06-2.00008-31.719 1.99992-31.7191 2-5.03304e-06ZM-6.00007-29.719-0.000104987-41.7191 5.99993-29.7191Z" fill="#4472C4" transform="matrix(1.00023 8.74427e-08 8.74228e-08 -1 208 883)"/><text font-family="Calibri,Calibri_MSFontService,sans-serif" font-weight="400" font-size="24" transform="matrix(1 0 0 0.999772 232.225 20)">Propagate SSSB <tspan x="0" y="29.0066">and SC</tspan></text><path d="M0 15.5C-3.94582e-15 6.93959 6.93801 0 15.4965 0 24.055-3.94671e-15 30.993 6.93959 30.993 15.5 30.993 24.0604 24.055 31 15.4965 31 6.93801 31-5.91873e-15 24.0604 0 15.5Z" stroke="#2F528F" stroke-width="1.33333" stroke-miterlimit="8" fill="#4472C4" fill-rule="evenodd" transform="matrix(1.00023 0 -0 1 560.5 12.5001)"/><path d="M2-6.09749e-06 2.00007 24.4361-1.99993 24.4361-2 6.09749e-06ZM6.00007 22.4361 0.000104987 34.4361-5.99993 22.4361Z" fill="#4472C4" transform="matrix(1.00023 0 -0 1 576 43)"/><text font-family="Calibri,Calibri_MSFontService,sans-serif" font-weight="400" font-size="24" transform="matrix(1 0 0 0.999772 600.309 20)">Render<tspan x="75.7639" y="0">frame by </tspan><tspan x="0" y="29.0066">frame</tspan></text><path d="M10.6668 0 232.278 0C238.169 0 242.945 4.77571 242.945 10.6668L242.945 64 0 64 0 10.6668C-1.93313e-15 4.77571 4.7757 0 10.6668 0Z" stroke="#787878" stroke-width="1.33333" stroke-miterlimit="8" fill="#A5A5A5" fill-rule="evenodd" transform="matrix(1.00023 0 -0 1 454.5 77.5001)"/><text fill="#FFFFFF" font-family="Calibri,Calibri_MSFontService,sans-serif" font-weight="400" font-size="24" transform="matrix(1 0 0 0.999772 500.839 104)">Set <tspan x="36.3816" y="0">locations</tspan><tspan x="129.483" y="0">of </tspan><tspan x="-1.35367" y="29.0066">Blender </tspan><tspan x="80.3316" y="29.0066">objects</tspan></text><rect x="0" y="0" width="242.945" height="64" stroke="#AE5A21" stroke-width="1.33333" stroke-miterlimit="8" fill="#ED7D31" transform="matrix(1.00023 0 -0 1 454.5 141.5)"/><path d="M10.6668 0 232.278 0C238.169 0 242.945 4.77571 242.945 10.6668L242.945 64 0 64 0 10.6668C-1.93313e-15 4.77571 4.7757 0 10.6668 0Z" stroke="#787878" stroke-width="1.33333" stroke-miterlimit="8" fill="#A5A5A5" fill-rule="evenodd" transform="matrix(1.00023 0 -0 1 454.5 246.5)"/><text fill="#FFFFFF" font-family="Calibri,Calibri_MSFontService,sans-serif" font-weight="400" font-size="24" transform="matrix(1 0 0 0.999772 500.842 273)">Set <tspan x="36.3817" y="0">locations</tspan><tspan x="129.483" y="0">of </tspan><tspan x="3.88757" y="29.0066">render</tspan><tspan x="75.0905" y="29.0066">objects</tspan></text><rect x="0" y="0" width="242.945" height="64" stroke="#AE5A21" stroke-width="1.33333" stroke-miterlimit="8" fill="#ED7D31" transform="matrix(1.00023 0 -0 1 454.5 310.5)"/><path d="M-2 5.08001e-06-2.00008-31.3333 1.99992-31.3333 2-5.08001e-06ZM-6.00007-29.3333-0.000104987-41.3333 5.99993-29.3333Z" fill="#4472C4" transform="matrix(1.00023 8.74427e-08 8.74228e-08 -1 576 205)"/><path d="M10.6668 0 232.278 0C238.169 0 242.945 4.77571 242.945 10.6668L242.945 64 0 64 0 10.6668C-1.93313e-15 4.77571 4.7757 0 10.6668 0Z" stroke="#787878" stroke-width="1.33333" stroke-miterlimit="8" fill="#A5A5A5" fill-rule="evenodd" transform="matrix(1.00023 0 -0 1 454.5 416.5)"/><text fill="#FFFFFF" font-family="Calibri,Calibri_MSFontService,sans-serif" font-weight="400" font-size="24" transform="matrix(1 0 0 0.999772 483.691 457)">Render<tspan x="75.7639" y="0">each </tspan><tspan x="127.609" y="0">scene</tspan></text><rect x="0" y="0" width="242.945" height="64" stroke="#AE5A21" stroke-width="1.33333" stroke-miterlimit="8" fill="#ED7D31" transform="matrix(1.00023 0 -0 1 454.5 480.5)"/><text fill="#FFFFFF" font-family="Calibri,Calibri_MSFontService,sans-serif" font-weight="400" font-size="16" transform="matrix(1 0 0 0.999772 499.195 498)">bpy.ops.render.render<tspan x="143.119" y="0">()</tspan><tspan x="-33.3476" y="19.0043">sispo.sim.render.render_starmap</tspan><tspan x="181.295" y="19.0043">(</tspan><tspan x="73.9769" y="38.0087">)</tspan></text><path d="M2-5.08001e-06 2.00008 31.3333-1.99992 31.3333-2 5.08001e-06ZM6.00007 29.3333 0.000104987 41.3333-5.99993 29.3333Z" fill="#4472C4" transform="matrix(1.00023 0 -0 1 576 374)"/><path d="M10.6668 0 232.278 0C238.169 0 242.945 4.77571 242.945 10.6668L242.945 64 0 64 0 10.6668C-1.93313e-15 4.77571 4.7757 0 10.6668 0Z" stroke="#787878" stroke-width="1.33333" stroke-miterlimit="8" fill="#A5A5A5" fill-rule="evenodd" transform="matrix(1.00023 0 -0 1 454.5 585.5)"/><text fill="#FFFFFF" font-family="Calibri,Calibri_MSFontService,sans-serif" font-weight="400" font-size="24" transform="matrix(1 0 0 0.999772 529.908 626)">Compose</text><rect x="0" y="0" width="242.945" height="64" stroke="#AE5A21" stroke-width="1.33333" stroke-miterlimit="8" fill="#ED7D31" transform="matrix(1.00023 0 -0 1 454.5 649.5)"/><text fill="#FFFFFF" font-family="Calibri,Calibri_MSFontService,sans-serif" font-weight="400" font-size="16" transform="matrix(1 0 0 0.999772 470.908 686)">sispo.sim.compositor.compose()</text><path d="M-2 5.08001e-06-2.00008-31.3333 1.99992-31.3333 2-5.08001e-06ZM-6.00007-29.3333-0.000104987-41.3333 5.99993-29.3333Z" fill="#4472C4" transform="matrix(1.00023 8.74427e-08 8.74228e-08 -1 576 544)"/><path d="M-6.50074e-07 2-24.0026 2-22.0026 0-22.0026 145.697-24.0026 143.697 656.002 143.697 654.002 145.697 654.002 0.000209974 656.002 2.00021 646 2.00021 646-1.99979 658.002-1.99979 658.002 147.697-26.0026 147.697-26.0026-2 6.50074e-07-2ZM648 6.00021 636 0.000209974 648-5.99979Z" fill="#4472C4" transform="matrix(-4.37114e-08 -1 1.00023 -4.37214e-08 576 713)"/><path d="M0 15C-3.94582e-15 6.71573 6.93801 0 15.4965 0 24.055-3.8194e-15 30.993 6.71573 30.993 15 30.993 23.2843 24.055 30 15.4965 30 6.93801 30-5.91873e-15 23.2843 0 15Z" stroke="#2F528F" stroke-width="1.33333" stroke-miterlimit="8" fill="#4472C4" fill-rule="evenodd" transform="matrix(1.00023 0 -0 1 560.5 770.5)"/><path d="M2-7.34651e-06 2.00017 47.1628-1.99983 47.1628-2 7.34651e-06ZM6.00017 45.1628 0.000209974 57.1628-5.99983 45.1629Z" fill="#4472C4" transform="matrix(1.00023 0 -0 1 576 713)"/></g></svg>