<svg width="1280" height="720" xmlns="http://www.w3.org/2000/svg" xmlns:xlink="http://www.w3.org/1999/xlink" overflow="hidden"><defs><clipPath id="clip0"><path d="M0 0 1280 0 1280 720 0 720Z" fill-rule="evenodd" clip-rule="evenodd"/></clipPath></defs><g clip-path="url(#clip0)"><rect x="0" y="0" width="1280" height="720" fill="#FFFFFF"/><path d="M242.5 16.0001C242.5 7.43964 249.44 0.500053 258 0.500053 266.56 0.500053 273.5 7.43964 273.5 16.0001 273.5 24.5605 266.56 31.5001 258 31.5001 249.44 31.5001 242.5 24.5605 242.5 16.0001Z" stroke="#2F528F" stroke-width="1.33333" stroke-miterlimit="8" fill="#4472C4" fill-rule="evenodd"/><path d="M147.167 65.5001 368.833 65.5001C374.724 65.5001 379.5 70.2758 379.5 76.1669L379.5 129.5 136.5 129.5 136.5 76.1669C136.5 70.2758 141.276 65.5001 147.167 65.5001Z" stroke="#787878" stroke-width="1.33333" stroke-miterlimit="8" fill="#A5A5A5" fill-rule="evenodd"/><text fill="#FFFFFF" font-family="Calibri,Calibri_MSFontService,sans-serif" font-weight="400" font-size="24" transform="translate(182.454 92)">Read and parse <tspan x="4.69333" y="29">definition.json</tspan></text><rect x="136.5" y="129.5" width="243" height="64" stroke="#AE5A21" stroke-width="1.33333" stroke-miterlimit="8" fill="#ED7D31"/><text fill="#FFFFFF" font-family="Calibri,Calibri_MSFontService,sans-serif" font-weight="400" font-size="24" transform="translate(168.528 169)">sispo.read_input()</text><path d="M147.167 219.5 368.833 219.5C374.724 219.5 379.5 224.276 379.5 230.167L379.5 283.5 136.5 283.5 136.5 230.167C136.5 224.276 141.276 219.5 147.167 219.5Z" stroke="#787878" stroke-width="1.33333" stroke-miterlimit="8" fill="#A5A5A5" fill-rule="evenodd"/><text fill="#FFFFFF" font-family="Calibri,Calibri_MSFontService,sans-serif" font-weight="400" font-size="24" transform="translate(158.268 260)">Simulate<tspan x="90.3533" y="0">and </tspan><tspan x="132.687" y="0">render</tspan></text><rect x="136.5" y="283.5" width="243" height="64" stroke="#AE5A21" stroke-width="1.33333" stroke-miterlimit="8" fill="#ED7D31"/><path d="M259 31 259 55.4361 255 55.4361 255 31ZM263 53.4361 257 65.4361 251 53.4361Z" fill="#4472C4"/><path d="M259 193 259 209.205 255 209.205 255 193ZM263 207.205 257 219.205 251 207.205Z" fill="#4472C4"/><path d="M438.167 219.5 659.833 219.5C665.724 219.5 670.5 224.276 670.5 230.167L670.5 283.5 427.5 283.5 427.5 230.167C427.5 224.276 432.276 219.5 438.167 219.5Z" stroke="#787878" stroke-width="1.33333" stroke-miterlimit="8" fill="#A5A5A5" fill-rule="evenodd"/><text fill="#FFFFFF" font-family="Calibri,Calibri_MSFontService,sans-serif" font-weight="400" font-size="24" transform="translate(462.537 246)">Create <tspan x="69.3734" y="0">simulation</tspan><tspan x="23.08" y="29">environment</tspan></text><rect x="427.5" y="283.5" width="243" height="64" stroke="#AE5A21" stroke-width="1.33333" stroke-miterlimit="8" fill="#ED7D31"/><text fill="#FFFFFF" font-family="Calibri,Calibri_MSFontService,sans-serif" font-weight="400" font-size="16" transform="translate(442.69 321)">sispo.Environment<tspan x="120.327" y="0">(</tspan><tspan x="125.16" y="0">sim_settings</tspan>)</text><path d="M725.167 219.5 947.833 219.5C953.724 219.5 958.5 224.276 958.5 230.167L958.5 283.5 714.5 283.5 714.5 230.167C714.5 224.276 719.276 219.5 725.167 219.5Z" stroke="#787878" stroke-width="1.33333" stroke-miterlimit="8" fill="#A5A5A5" fill-rule="evenodd"/><text fill="#FFFFFF" font-family="Calibri,Calibri_MSFontService,sans-serif" font-weight="400" font-size="24" transform="translate(733.678 246)">Propagate spacecraft <tspan x="58.2733" y="29">and SSSB</tspan></text><rect x="714.5" y="283.5" width="244" height="64" stroke="#AE5A21" stroke-width="1.33333" stroke-miterlimit="8" fill="#ED7D31"/><text fill="#FFFFFF" font-family="Calibri,Calibri_MSFontService,sans-serif" font-weight="400" font-size="16" transform="translate(771.531 321)">sispo.sim.simulate<tspan x="119.513" y="0">()</tspan></text><path d="M1013.17 219.5 1235.83 219.5C1241.72 219.5 1246.5 224.276 1246.5 230.167L1246.5 283.5 1002.5 283.5 1002.5 230.167C1002.5 224.276 1007.28 219.5 1013.17 219.5Z" stroke="#787878" stroke-width="1.33333" stroke-miterlimit="8" fill="#A5A5A5" fill-rule="evenodd"/><text fill="#FFFFFF" font-family="Calibri,Calibri_MSFontService,sans-serif" font-weight="400" font-size="24" transform="translate(1063.01 260)">Render<tspan x="75.7467" y="0">SSSB</tspan></text><rect x="1002.5" y="283.5" width="244" height="64" stroke="#AE5A21" stroke-width="1.33333" stroke-miterlimit="8" fill="#ED7D31"/><text fill="#FFFFFF" font-family="Calibri,Calibri_MSFontService,sans-serif" font-weight="400" font-size="16" transform="translate(1065.32 321)">sispo.sim.render<tspan x="107.453" y="0">()</tspan></text><path d="M379 249 416.515 249 416.515 253 379 253ZM414.515 245 426.515 251 414.515 257Z" fill="#4472C4"/><path d="M670 249 704.364 249 704.364 253 670 253ZM702.364 245 714.364 251 702.364 257Z" fill="#4472C4"/><path d="M958 249 992.364 249 992.364 253 958 253ZM990.364 245 1002.36 251 990.364 257Z" fill="#4472C4"/><path d="M147.167 373.5 368.833 373.5C374.724 373.5 379.5 378.276 379.5 384.167L379.5 437.5 136.5 437.5 136.5 384.167C136.5 378.276 141.276 373.5 147.167 373.5Z" stroke="#787878" stroke-width="1.33333" stroke-miterlimit="8" fill="#A5A5A5" fill-rule="evenodd"/><text fill="#FFFFFF" font-family="Calibri,Calibri_MSFontService,sans-serif" font-weight="400" font-size="24" transform="translate(209.444 415)">Compress</text><rect x="136.5" y="437.5" width="243" height="64" stroke="#AE5A21" stroke-width="1.33333" stroke-miterlimit="8" fill="#ED7D31"/><path d="M147.167 528.5 368.833 528.5C374.724 528.5 379.5 533.276 379.5 539.167L379.5 592.5 136.5 592.5 136.5 539.167C136.5 533.276 141.276 528.5 147.167 528.5Z" stroke="#787878" stroke-width="1.33333" stroke-miterlimit="8" fill="#A5A5A5" fill-rule="evenodd"/><text fill="#FFFFFF" font-family="Calibri,Calibri_MSFontService,sans-serif" font-weight="400" font-size="24" transform="translate(199.397 569)">Reconstruct</text><rect x="136.5" y="592.5" width="243" height="64" stroke="#AE5A21" stroke-width="1.33333" stroke-miterlimit="8" fill="#ED7D31"/><path d="M242.5 705.5C242.5 697.216 249.216 690.5 257.5 690.5 265.784 690.5 272.5 697.216 272.5 705.5 272.5 713.784 265.784 720.5 257.5 720.5 249.216 720.5 242.5 713.784 242.5 705.5Z" stroke="#2F528F" stroke-width="1.33333" stroke-miterlimit="8" fill="#4472C4" fill-rule="evenodd"/><path d="M1.99993-0.0167539 2.20277 24.1969-1.79709 24.2304-1.99993 0.0167539ZM6.18588 22.1635 0.286614 34.2133-5.8137 22.264Z" fill="#4472C4" transform="matrix(-1 -8.74228e-08 -8.74228e-08 1 257.287 656)"/><path d="M438.167 373.5 659.833 373.5C665.724 373.5 670.5 378.276 670.5 384.167L670.5 437.5 427.5 437.5 427.5 384.167C427.5 378.276 432.276 373.5 438.167 373.5Z" stroke="#787878" stroke-width="1.33333" stroke-miterlimit="8" fill="#A5A5A5" fill-rule="evenodd"/><text fill="#FFFFFF" font-family="Calibri,Calibri_MSFontService,sans-serif" font-weight="400" font-size="24" transform="translate(456.6 414)">Create <tspan x="69.3733" y="0">compressor</tspan></text><rect x="427.5" y="437.5" width="243" height="64" stroke="#AE5A21" stroke-width="1.33333" stroke-miterlimit="8" fill="#ED7D31"/><text fill="#FFFFFF" font-family="Calibri,Calibri_MSFontService,sans-serif" font-weight="400" font-size="16" transform="translate(438.593 474)">sispo.Compressor<tspan x="114.987" y="0">(</tspan><tspan x="119.82" y="0">com</tspan><tspan x="147.853" y="0">p</tspan><tspan x="156.187" y="0">_settings</tspan><tspan x="214.707" y="0">)</tspan></text><path d="M0.021449-1.99988 37.5373-1.59752 37.4944 2.40225-0.021449 1.99988ZM35.5803-5.61874 47.5153 0.509606 35.4516 6.38057Z" fill="#4472C4" transform="matrix(1 0 0 -1 379 405.51)"/><path d="M2-1.60256e-05 2.00013 16.2048-1.99987 16.2048-2 1.60256e-05ZM6.00011 14.2048 0.000209974 26.2048-5.99989 14.2049Z" fill="#4472C4" transform="matrix(-1 -8.74228e-08 -8.74228e-08 1 257 347)"/><path d="M2-8.01635e-06 2.00006 16.1932-1.99993 16.1932-2 8.01635e-06ZM6.00006 14.1932 0.000104987 26.1932-5.99994 14.1932Z" fill="#4472C4" transform="matrix(-1 -8.74228e-08 -8.74228e-08 1 257 501)"/><path d="M725.167 373.5 947.833 373.5C953.724 373.5 958.5 378.276 958.5 384.167L958.5 437.5 714.5 437.5 714.5 384.167C714.5 378.276 719.276 373.5 725.167 373.5Z" stroke="#787878" stroke-width="1.33333" stroke-miterlimit="8" fill="#A5A5A5" fill-rule="evenodd"/><text fill="#FFFFFF" font-family="Calibri,Calibri_MSFontService,sans-serif" font-weight="400" font-size="24" transform="translate(755.711 400)">Compress<tspan x="101.52" y="0">image</tspan><tspan x="52.16" y="29">series</tspan></text><rect x="714.5" y="437.5" width="244" height="64" stroke="#AE5A21" stroke-width="1.33333" stroke-miterlimit="8" fill="#ED7D31"/><text fill="#FFFFFF" font-family="Calibri,Calibri_MSFontService,sans-serif" font-weight="400" transform="translate(732.204 473)">sispo.compression.comp_decomp_series<tspan x="200.5" y="0">()</tspan></text><path d="M438.167 528.5 659.833 528.5C665.724 528.5 670.5 533.276 670.5 539.167L670.5 592.5 427.5 592.5 427.5 539.167C427.5 533.276 432.276 528.5 438.167 528.5Z" stroke="#787878" stroke-width="1.33333" stroke-miterlimit="8" fill="#A5A5A5" fill-rule="evenodd"/><text fill="#FFFFFF" font-family="Calibri,Calibri_MSFontService,sans-serif" font-weight="400" font-size="24" transform="translate(447.517 569)">Create <tspan x="69.3733" y="0">reconstructor</tspan></text><rect x="427.5" y="592.5" width="243" height="64" stroke="#AE5A21" stroke-width="1.33333" stroke-miterlimit="8" fill="#ED7D31"/><text fill="#FFFFFF" font-family="Calibri,Calibri_MSFontService,sans-serif" font-weight="400" font-size="15" transform="translate(441.28 629)">sispo.Reconstructor(recon_settings)</text><path d="M379 558 416.515 558 416.515 562 379 562ZM414.515 554 426.515 560 414.515 566Z" fill="#4472C4"/><path d="M670.022 403 704.386 403.375 704.342 407.375 669.978 407ZM702.43 399.353 714.363 405.484 702.299 411.353Z" fill="#4472C4"/><path d="M729.167 528.5 950.833 528.5C956.724 528.5 961.5 533.276 961.5 539.167L961.5 592.5 718.5 592.5 718.5 539.167C718.5 533.276 723.276 528.5 729.167 528.5Z" stroke="#787878" stroke-width="1.33333" stroke-miterlimit="8" fill="#A5A5A5" fill-rule="evenodd"/><text fill="#FFFFFF" font-family="Calibri,Calibri_MSFontService,sans-serif" font-weight="400" font-size="24" transform="translate(747.466 569)">Reconstruct<tspan x="121.613" y="0">model</tspan></text><rect x="718.5" y="592.5" width="243" height="64" stroke="#AE5A21" stroke-width="1.33333" stroke-miterlimit="8" fill="#ED7D31"/><text fill="#FFFFFF" font-family="Calibri,Calibri_MSFontService,sans-serif" font-weight="400" font-size="16" transform="translate(739.549 629)">sispo.reconstruct.reconstruct<tspan x="189.78" y="0">()</tspan></text><path d="M0.00166599-2 37.517-1.96875 37.5136 2.03125-0.00166599 2ZM35.5203-5.97041 47.5153 0.0395801 35.5103 6.02958Z" fill="#4472C4" transform="matrix(1 0 0 -1 670 560.04)"/></g></svg>